<?xml version="1.0" encoding="UTF-8"?>
<svg id="Layer_1" data-name="Layer 1" xmlns="http://www.w3.org/2000/svg" viewBox="0 0 951.2 346.01">
  <defs>
    <style>
      .cls-1 {
        font-family: HelveticaWorld-Bold, 'Helvetica World';
        font-size: 200px;
        font-weight: 700;
      }

      .cls-2 {
        fill-rule: evenodd;
      }

      .cls-3 {
        letter-spacing: -.02em;
      }

      .cls-4 {
        letter-spacing: 0em;
      }
    </style>
  </defs>
  <text class="cls-1" transform="translate(158.8 171.78)"><tspan x="0" y="0">F</tspan><tspan class="cls-4" x="121.19" y="0">L</tspan><tspan class="cls-3" x="238.67" y="0">O</tspan><tspan x="389.26" y="0">W</tspan></text>
  <g>
    <path d="M73.34,342.2h-29.98v-118.16H0v-25.39h116.8v25.39h-43.46v118.16Z"/>
    <path d="M134.38,198.65h72.56c14.78,0,26.01,3.96,33.69,11.87,7.68,7.91,11.52,17.47,11.52,28.66,0,16.67-7.39,28.06-22.17,34.18,6.84,2.6,11.57,6.36,14.21,11.28,2.64,4.92,3.96,13.79,3.96,26.61s.47,20.26,1.42,22.51c.94,2.25,2.59,3.79,4.93,4.64v3.81h-33.11c-2.15-6.45-3.22-15.75-3.22-27.93,0-10.22-.68-16.81-2.05-19.78-1.37-2.96-3.63-5.11-6.79-6.45-3.16-1.33-8.02-2-14.6-2h-30.96v56.15h-29.39v-143.56ZM198.93,261.83c7.88,0,13.72-1.5,17.53-4.49,3.81-2.99,5.71-8.04,5.71-15.14,0-5.86-1.77-10.46-5.32-13.82-3.55-3.35-8.77-5.03-15.67-5.03h-37.4v38.48h35.16Z"/>
    <path d="M295.9,342.2h-31.64l51.17-143.56h34.67l50.59,143.56h-32.62l-9.18-29.59h-53.03l-9.96,29.59ZM313.87,287.81h36.62l-17.87-56.84h-.39l-18.36,56.84Z"/>
    <path d="M585.94,342.2h-29.98v-143.56h29.98v58.4l54.88-58.4h38.77l-58.59,58.79,62.01,84.77h-38.67l-44.34-62.99-14.06,14.36v48.63Z"/>
    <path d="M804.2,224.04h-76.17v30.18h70.02v25.39h-70.02v37.21h79.59v25.39h-108.98v-143.56h105.57v25.39Z"/>
    <path d="M831.05,198.65h72.56c14.78,0,26.01,3.96,33.69,11.87,7.68,7.91,11.52,17.47,11.52,28.66,0,16.67-7.39,28.06-22.17,34.18,6.84,2.6,11.57,6.36,14.21,11.28,2.64,4.92,3.96,13.79,3.96,26.61s.47,20.26,1.42,22.51c.94,2.25,2.59,3.79,4.93,4.64v3.81h-33.11c-2.15-6.45-3.22-15.75-3.22-27.93,0-10.22-.68-16.81-2.05-19.78-1.37-2.96-3.63-5.11-6.79-6.45-3.16-1.33-8.02-2-14.6-2h-30.96v56.15h-29.39v-143.56ZM895.61,261.83c7.88,0,13.72-1.5,17.53-4.49,3.81-2.99,5.71-8.04,5.71-15.14,0-5.86-1.77-10.46-5.32-13.82-3.55-3.35-8.77-5.03-15.67-5.03h-37.4v38.48h35.16Z"/>
  </g>
  <path class="cls-2" d="M809.24,24.38c-3.65,2.55-31.84,27.82-31.84,74.8s28.46,70.23,31.84,72.6c-6.02-1.48-32.17-8.55-47.93-33.62-7.07-11.25-10.98-24.52-11-38.96-.05-33.88,25.21-66.17,58.93-74.82Z"/>
  <path class="cls-2" d="M892.27,24.38c3.65,2.55,31.84,27.82,31.84,74.8,0,46.08-28.46,70.23-31.84,72.6,6.02-1.48,32.17-8.55,47.93-33.62,7.07-11.25,10.98-24.52,11-38.96.05-33.88-25.21-66.17-58.93-74.82Z"/>
  <path d="M492.21,261.19l-40.22-.16c-.17,3.71-.23,8.5-.17,14.36l37.68.15-2.24,11.03-34.56-.14c2.76,21.17,10.93,31.78,24.49,31.84,4.85.02,9.15-1.39,12.9-4.24,3.75-2.85,6.21-6.84,7.39-11.98l31.87.13c-1.74,11.65-7.28,21.42-16.67,29.33-9.39,7.91-21.72,11.83-36.97,11.76-17.26-.07-30.74-5.48-40.44-16.23-9.7-10.75-15.49-24.33-17.35-40.75l-14.91-.06,1.89-11.03,12.13.05c-.05-5.73.12-10.51.52-14.35l-14.45-.06.89-11.06,15.1.09c7.54-36.04,27.68-53.99,60.43-53.86,14.71.06,26.35,3.54,34.92,10.44,8.56,6.9,13.44,16.25,14.71,28.04l-31.63-.13c-2.43-8.8-9.04-13.22-19.83-13.26-13.48-.05-21.65,9.58-24.5,28.91l41.26.17-2.24,11.03Z"/>
</svg>