<?xml version="1.0" encoding="UTF-8"?>
<svg id="Layer_1" xmlns="http://www.w3.org/2000/svg" version="1.1" viewBox="0 0 951.2 346">
  <!-- Generator: Adobe Illustrator 29.0.1, SVG Export Plug-In . SVG Version: 2.1.0 Build 192)  -->
  <defs>
    <style>
      .st0 {
        isolation: isolate;
      }

      .st1 {
        fill-rule: evenodd;
      }
    </style>
  </defs>
  <g class="st0">
    <path d="M276.1,53.3h-72.2v33.1h63.2v25h-63.2v60.4h-29.9V28h102.1v25.3Z"/>
  </g>
  <g class="st0">
    <path d="M295.2,27.8h30.1v118.1h71.3v25.9h-101.4V27.8Z"/>
  </g>
  <g class="st0">
    <path d="M476.4,175.8c-20.6,0-36.3-5.6-47.2-16.8-14.6-13.7-21.9-33.5-21.9-59.4s7.3-46.2,21.9-59.4c10.9-11.2,26.6-16.8,47.2-16.8s36.3,5.6,47.2,16.8c14.5,13.2,21.8,33,21.8,59.4s-7.3,45.6-21.8,59.4c-10.9,11.2-26.6,16.8-47.2,16.8ZM504.8,137.1c7-8.8,10.4-21.3,10.4-37.5s-3.5-28.6-10.5-37.5c-7-8.8-16.5-13.2-28.4-13.2s-21.4,4.4-28.5,13.2c-7.1,8.8-10.6,21.3-10.6,37.5s3.5,28.7,10.6,37.5c7.1,8.8,16.6,13.2,28.5,13.2s21.4-4.4,28.4-13.2Z"/>
  </g>
  <g class="st0">
    <path d="M703.3,27.8h30.6l-40.5,143.9h-28.7l-17.4-84.2-5.1-27.8-5.1,27.8-17.4,84.2h-27.9l-40.8-143.9h31.9l19,82.4,4.1,22.9,4.2-22.5,16.2-82.9h31.7l17.1,82.4,4.4,22.9,4.4-22.1,19.2-83.3Z"/>
  </g>
  <path d="M73.3,342.2h-30v-118.2H0v-25.4h116.8v25.4h-43.5s0,118.2,0,118.2Z"/>
  <path d="M134.4,198.6h72.6c14.8,0,26,4,33.7,11.9,7.7,7.9,11.5,17.5,11.5,28.7,0,16.7-7.4,28.1-22.2,34.2,6.8,2.6,11.6,6.4,14.2,11.3s4,13.8,4,26.6.5,20.3,1.4,22.5c.9,2.2,2.6,3.8,4.9,4.6v3.8h-33.1c-2.1-6.5-3.2-15.8-3.2-27.9s-.7-16.8-2.1-19.8c-1.4-3-3.6-5.1-6.8-6.5-3.2-1.3-8-2-14.6-2h-31v56.1h-29.4v-143.6h0ZM198.9,261.8c7.9,0,13.7-1.5,17.5-4.5,3.8-3,5.7-8,5.7-15.1s-1.8-10.5-5.3-13.8c-3.6-3.4-8.8-5-15.7-5h-37.4v38.5h35.2,0Z"/>
  <path d="M295.9,342.2h-31.6l51.2-143.6h34.7l50.6,143.6h-32.6l-9.2-29.6h-53l-10,29.6ZM313.9,287.8h36.6l-17.9-56.8h-.4l-18.4,56.8Z"/>
  <path d="M585.9,342.2h-30v-143.6h30v58.4l54.9-58.4h38.8l-58.6,58.8,62,84.8h-38.7l-44.3-63-14.1,14.4v48.6Z"/>
  <path d="M804.2,224h-76.2v30.2h70v25.4h-70v37.2h79.6v25.4h-109v-143.6h105.6v25.4h0Z"/>
  <path d="M831,198.6h72.6c14.8,0,26,4,33.7,11.9,7.7,7.9,11.5,17.5,11.5,28.7,0,16.7-7.4,28.1-22.2,34.2,6.8,2.6,11.6,6.4,14.2,11.3s4,13.8,4,26.6.5,20.3,1.4,22.5c.9,2.2,2.6,3.8,4.9,4.6v3.8h-33.1c-2.2-6.5-3.2-15.8-3.2-27.9s-.7-16.8-2-19.8c-1.4-3-3.6-5.1-6.8-6.5-3.2-1.3-8-2-14.6-2h-31v56.1h-29.4v-143.6h0ZM895.6,261.8c7.9,0,13.7-1.5,17.5-4.5,3.8-3,5.7-8,5.7-15.1s-1.8-10.5-5.3-13.8c-3.5-3.4-8.8-5-15.7-5h-37.4v38.5h35.2,0Z"/>
  <path class="st1" d="M809.2,24.4c-3.7,2.5-31.8,27.8-31.8,74.8s28.5,70.2,31.8,72.6c-6-1.5-32.2-8.6-47.9-33.6-7.1-11.2-11-24.5-11-39,0-33.9,25.2-66.2,58.9-74.8Z"/>
  <path class="st1" d="M892.3,24.4c3.7,2.5,31.8,27.8,31.8,74.8s-28.5,70.2-31.8,72.6c6-1.5,32.2-8.6,47.9-33.6,7.1-11.2,11-24.5,11-39,0-33.9-25.2-66.2-58.9-74.8Z"/>
  <path d="M492.2,261.2l-40.2-.2c-.2,3.7-.2,8.5-.2,14.4h37.7c0,.1-2.2,11.2-2.2,11.2h-34.6c2.8,21,10.9,31.6,24.5,31.7,4.9,0,9.1-1.4,12.9-4.2,3.8-2.9,6.2-6.8,7.4-12h31.9c-1.7,11.8-7.3,21.6-16.7,29.5-9.4,7.9-21.7,11.8-37,11.8-17.3,0-30.7-5.5-40.4-16.2s-15.5-24.3-17.4-40.8h-14.9c0,0,1.9-11.1,1.9-11.1h12.1c0-5.7.1-10.5.5-14.3h-14.5c0,0,.9-11.1.9-11.1h15.1c7.5-36,27.7-53.9,60.4-53.8,14.7,0,26.4,3.5,34.9,10.4,8.6,6.9,13.4,16.2,14.7,28h-31.6c-2.4-8.9-9-13.4-19.8-13.4-13.5,0-21.6,9.6-24.5,28.9l41.3.2-2.2,11h0Z"/>
</svg>